REM DIRINDEX 1\2\6,1\2\7,1\2\8,1\2\9,1\3\10,1\3\11,1\4\12,1\4\13,1\4\14,1\5\15,1\5\16,1\5\17
REM DIRNAME folder01,folder02,folder03,folder04,folder05,folder06,folder07,folder08,folder09,folder10,folder11,folder12,folder13,folder14,folder15,folder16,folder17
TITLE ""
FILE "1400_2_sec03_0232_0248.mp3" MP3
  TRACK 01 AUDIO
    TITLE "0:"
    INDEX 01 00:00:00
  TRACK 02 AUDIO
    TITLE "13:cjc029_2037"
    INDEX 01 00:00:19
  TRACK 03 AUDIO
    TITLE "0:"
    INDEX 01 00:01:30
  TRACK 04 AUDIO
    TITLE "14:cjc029_2038"
    INDEX 01 00:01:36
  TRACK 05 AUDIO
    TITLE "0:"
    INDEX 01 00:02:69
  TRACK 06 AUDIO
    TITLE "13:cjc029_2039"
    INDEX 01 00:03:53
  TRACK 07 AUDIO
    TITLE "0:"
    INDEX 01 00:04:48
  TRACK 08 AUDIO
    TITLE "14:cjc029_2040"
    INDEX 01 00:04:56
  TRACK 09 AUDIO
    TITLE "0:"
    INDEX 01 00:06:49
  TRACK 10 AUDIO
    TITLE "13:cjc029_2041"
    INDEX 01 00:07:31
  TRACK 11 AUDIO
    TITLE "0:"
    INDEX 01 00:08:42
  TRACK 12 AUDIO
    TITLE "14:cjc029_2042"
    INDEX 01 00:08:44
  TRACK 13 AUDIO
    TITLE "0:"
    INDEX 01 00:10:68
  TRACK 14 AUDIO
    TITLE "13:cjc029_2043"
    INDEX 01 00:11:50
  TRACK 15 AUDIO
    TITLE "0:"
    INDEX 01 00:12:54
  TRACK 16 AUDIO
    TITLE "14:cjc029_2044"
    INDEX 01 00:12:60
  TRACK 17 AUDIO
    TITLE "0:"
    INDEX 01 00:16:36
  TRACK 18 AUDIO
    TITLE "13:cjc029_2045"
    INDEX 01 00:17:18
  TRACK 19 AUDIO
    TITLE "0:"
    INDEX 01 00:18:27
  TRACK 20 AUDIO
    TITLE "14:cjc029_2046"
    INDEX 01 00:18:35
  TRACK 21 AUDIO
    TITLE "0:"
    INDEX 01 00:19:65
  TRACK 22 AUDIO
    TITLE "13:cjc029_2047"
    INDEX 01 00:20:47
  TRACK 23 AUDIO
    TITLE "0:"
    INDEX 01 00:21:57
  TRACK 24 AUDIO
    TITLE "14:cjc029_2048"
    INDEX 01 00:21:60
  TRACK 25 AUDIO
    TITLE "0:"
    INDEX 01 00:23:51
  TRACK 26 AUDIO
    TITLE "13:cjc029_2049"
    INDEX 01 00:24:33
  TRACK 27 AUDIO
    TITLE "0:"
    INDEX 01 00:25:50
  TRACK 28 AUDIO
    TITLE "14:cjc029_2050"
    INDEX 01 00:25:54
  TRACK 29 AUDIO
    TITLE "0:"
    INDEX 01 00:27:00
  TRACK 30 AUDIO
    TITLE "13:cjc029_2051"
    INDEX 01 00:27:57
  TRACK 31 AUDIO
    TITLE "0:"
    INDEX 01 00:29:03
  TRACK 32 AUDIO
    TITLE "14:cjc029_2052"
    INDEX 01 00:29:09
  TRACK 33 AUDIO
    TITLE "0:"
    INDEX 01 00:33:46
  TRACK 34 AUDIO
    TITLE "13:cjc029_2053"
    INDEX 01 00:34:30
  TRACK 35 AUDIO
    TITLE "0:"
    INDEX 01 00:35:33
  TRACK 36 AUDIO
    TITLE "14:cjc029_2054"
    INDEX 01 00:35:39
  TRACK 37 AUDIO
    TITLE "0:"
    INDEX 01 00:39:25
  TRACK 38 AUDIO
    TITLE "13:cjc029_2055"
    INDEX 01 00:40:05
  TRACK 39 AUDIO
    TITLE "0:"
    INDEX 01 00:41:10
  TRACK 40 AUDIO
    TITLE "14:cjc029_2056"
    INDEX 01 00:41:16
  TRACK 41 AUDIO
    TITLE "0:"
    INDEX 01 00:42:37
  TRACK 42 AUDIO
    TITLE "13:cjc029_2057"
    INDEX 01 00:43:19
  TRACK 43 AUDIO
    TITLE "0:"
    INDEX 01 00:44:18
  TRACK 44 AUDIO
    TITLE "14:cjc029_2058"
    INDEX 01 00:44:22
  TRACK 45 AUDIO
    TITLE "0:"
    INDEX 01 00:48:30
  TRACK 46 AUDIO
    TITLE "12:cjc029_2059"
    INDEX 01 00:50:01
  TRACK 47 AUDIO
    TITLE "0:"
    INDEX 01 00:51:30
  TRACK 48 AUDIO
    TITLE "13:cjc029_2060"
    INDEX 01 00:52:36
  TRACK 49 AUDIO
    TITLE "0:"
    INDEX 01 00:53:51
  TRACK 50 AUDIO
    TITLE "14:cjc029_2061"
    INDEX 01 00:53:57
  TRACK 51 AUDIO
    TITLE "0:"
    INDEX 01 00:58:18
  TRACK 52 AUDIO
    TITLE "13:cjc029_2062"
    INDEX 01 00:59:00
  TRACK 53 AUDIO
    TITLE "0:"
    INDEX 01 01:00:00
  TRACK 54 AUDIO
    TITLE "14:cjc029_2063"
    INDEX 01 01:00:08
  TRACK 55 AUDIO
    TITLE "0:"
    INDEX 01 01:02:34
  TRACK 56 AUDIO
    TITLE "13:cjc029_2064"
    INDEX 01 01:03:12
  TRACK 57 AUDIO
    TITLE "0:"
    INDEX 01 01:04:15
  TRACK 58 AUDIO
    TITLE "14:cjc029_2065"
    INDEX 01 01:04:23
  TRACK 59 AUDIO
    TITLE "0:"
    INDEX 01 01:05:36
  TRACK 60 AUDIO
    TITLE "13:cjc029_2066"
    INDEX 01 01:06:18
  TRACK 61 AUDIO
    TITLE "0:"
    INDEX 01 01:07:15
  TRACK 62 AUDIO
    TITLE "14:cjc029_2067"
    INDEX 01 01:07:19
  TRACK 63 AUDIO
    TITLE "0:"
    INDEX 01 01:10:45
  TRACK 64 AUDIO
    TITLE "13:cjc029_2068"
    INDEX 01 01:11:27
  TRACK 65 AUDIO
    TITLE "0:"
    INDEX 01 01:12:34
  TRACK 66 AUDIO
    TITLE "14:cjc029_2069"
    INDEX 01 01:12:36
  TRACK 67 AUDIO
    TITLE "0:"
    INDEX 01 01:17:61
  TRACK 68 AUDIO
    TITLE "13:cjc029_2070"
    INDEX 01 01:18:45
  TRACK 69 AUDIO
    TITLE "0:"
    INDEX 01 01:19:52
  TRACK 70 AUDIO
    TITLE "14:cjc029_2071"
    INDEX 01 01:19:58
  TRACK 71 AUDIO
    TITLE "0:"
    INDEX 01 01:22:03
